%TF.GenerationSoftware,KiCad,Pcbnew,(6.0.8-1)-1*%
%TF.CreationDate,2022-11-25T16:28:16-05:00*%
%TF.ProjectId,smart-chessboard-board,736d6172-742d-4636-9865-7373626f6172,B*%
%TF.SameCoordinates,Original*%
%TF.FileFunction,Soldermask,Top*%
%TF.FilePolarity,Negative*%
%FSLAX46Y46*%
G04 Gerber Fmt 4.6, Leading zero omitted, Abs format (unit mm)*
G04 Created by KiCad (PCBNEW (6.0.8-1)-1) date 2022-11-25 16:28:16*
%MOMM*%
%LPD*%
G01*
G04 APERTURE LIST*
G04 Aperture macros list*
%AMRoundRect*
0 Rectangle with rounded corners*
0 $1 Rounding radius*
0 $2 $3 $4 $5 $6 $7 $8 $9 X,Y pos of 4 corners*
0 Add a 4 corners polygon primitive as box body*
4,1,4,$2,$3,$4,$5,$6,$7,$8,$9,$2,$3,0*
0 Add four circle primitives for the rounded corners*
1,1,$1+$1,$2,$3*
1,1,$1+$1,$4,$5*
1,1,$1+$1,$6,$7*
1,1,$1+$1,$8,$9*
0 Add four rect primitives between the rounded corners*
20,1,$1+$1,$2,$3,$4,$5,0*
20,1,$1+$1,$4,$5,$6,$7,0*
20,1,$1+$1,$6,$7,$8,$9,0*
20,1,$1+$1,$8,$9,$2,$3,0*%
%AMFreePoly0*
4,1,6,1.000000,0.000000,0.500000,-0.750000,-0.500000,-0.750000,-0.500000,0.750000,0.500000,0.750000,1.000000,0.000000,1.000000,0.000000,$1*%
%AMFreePoly1*
4,1,6,0.500000,-0.750000,-0.650000,-0.750000,-0.150000,0.000000,-0.650000,0.750000,0.500000,0.750000,0.500000,-0.750000,0.500000,-0.750000,$1*%
G04 Aperture macros list end*
%ADD10RoundRect,0.150000X0.587500X0.150000X-0.587500X0.150000X-0.587500X-0.150000X0.587500X-0.150000X0*%
%ADD11RoundRect,0.150000X-0.587500X-0.150000X0.587500X-0.150000X0.587500X0.150000X-0.587500X0.150000X0*%
%ADD12RoundRect,0.225000X0.225000X0.250000X-0.225000X0.250000X-0.225000X-0.250000X0.225000X-0.250000X0*%
%ADD13R,1.000000X1.500000*%
%ADD14RoundRect,0.200000X0.275000X-0.200000X0.275000X0.200000X-0.275000X0.200000X-0.275000X-0.200000X0*%
%ADD15RoundRect,0.200000X-0.275000X0.200000X-0.275000X-0.200000X0.275000X-0.200000X0.275000X0.200000X0*%
%ADD16RoundRect,0.225000X-0.225000X-0.250000X0.225000X-0.250000X0.225000X0.250000X-0.225000X0.250000X0*%
%ADD17C,3.600000*%
%ADD18C,6.400000*%
%ADD19RoundRect,0.250000X0.625000X-0.312500X0.625000X0.312500X-0.625000X0.312500X-0.625000X-0.312500X0*%
%ADD20FreePoly0,270.000000*%
%ADD21FreePoly1,270.000000*%
%ADD22RoundRect,0.200000X-0.200000X-0.275000X0.200000X-0.275000X0.200000X0.275000X-0.200000X0.275000X0*%
%ADD23RoundRect,0.100000X0.100000X-0.637500X0.100000X0.637500X-0.100000X0.637500X-0.100000X-0.637500X0*%
%ADD24R,2.000000X0.610000*%
%ADD25R,3.600000X2.680000*%
%ADD26C,0.800000*%
G04 APERTURE END LIST*
D10*
%TO.C,U432*%
X320882500Y-185481000D03*
X320882500Y-183581000D03*
D11*
X322882500Y-184531000D03*
%TD*%
D12*
%TO.C,C453*%
X237757000Y-103632000D03*
X236207000Y-103632000D03*
%TD*%
D13*
%TO.C,D202*%
X160325000Y-272452000D03*
X161925000Y-272452000D03*
X163525000Y-272452000D03*
X163525000Y-267552000D03*
X161925000Y-267552000D03*
X160325000Y-267552000D03*
%TD*%
D14*
%TO.C,R410*%
X164719000Y-238696000D03*
X164719000Y-237046000D03*
%TD*%
D11*
%TO.C,U460*%
X216327500Y-76901000D03*
X216327500Y-78801000D03*
D10*
X214327500Y-77851000D03*
%TD*%
D15*
%TO.C,R437*%
X239268000Y-156782000D03*
X239268000Y-158432000D03*
%TD*%
D16*
%TO.C,C402*%
X166217000Y-265938000D03*
X167767000Y-265938000D03*
%TD*%
D14*
%TO.C,R444*%
X218059000Y-131762000D03*
X218059000Y-130112000D03*
%TD*%
D13*
%TO.C,D245*%
X240589000Y-138721000D03*
X242189000Y-138721000D03*
X243789000Y-138721000D03*
X243789000Y-133821000D03*
X242189000Y-133821000D03*
X240589000Y-133821000D03*
%TD*%
D17*
%TO.C,H102*%
X347218000Y-299466000D03*
D18*
X347218000Y-299466000D03*
%TD*%
D11*
%TO.C,U442*%
X162987500Y-129987000D03*
X162987500Y-131887000D03*
D10*
X160987500Y-130937000D03*
%TD*%
D19*
%TO.C,R201*%
X109601000Y-190184500D03*
X109601000Y-187259500D03*
%TD*%
D12*
%TO.C,C440*%
X317513000Y-156845000D03*
X315963000Y-156845000D03*
%TD*%
D13*
%TO.C,D209*%
X133655000Y-245782000D03*
X135255000Y-245782000D03*
X136855000Y-245782000D03*
X136855000Y-240882000D03*
X135255000Y-240882000D03*
X133655000Y-240882000D03*
%TD*%
%TO.C,D237*%
X240462000Y-165391000D03*
X242062000Y-165391000D03*
X243662000Y-165391000D03*
X243662000Y-160491000D03*
X242062000Y-160491000D03*
X240462000Y-160491000D03*
%TD*%
D12*
%TO.C,C446*%
X264173000Y-130048000D03*
X262623000Y-130048000D03*
%TD*%
D14*
%TO.C,R428*%
X218059000Y-185356000D03*
X218059000Y-183706000D03*
%TD*%
D13*
%TO.C,D208*%
X320345000Y-272452000D03*
X321945000Y-272452000D03*
X323545000Y-272452000D03*
X323545000Y-267552000D03*
X321945000Y-267552000D03*
X320345000Y-267552000D03*
%TD*%
D12*
%TO.C,C416*%
X317513000Y-237236000D03*
X315963000Y-237236000D03*
%TD*%
D13*
%TO.C,D238*%
X267005000Y-165391000D03*
X268605000Y-165391000D03*
X270205000Y-165391000D03*
X270205000Y-160491000D03*
X268605000Y-160491000D03*
X267005000Y-160491000D03*
%TD*%
D12*
%TO.C,C439*%
X290843000Y-156859000D03*
X289293000Y-156859000D03*
%TD*%
D15*
%TO.C,R424*%
X319151000Y-210503000D03*
X319151000Y-212153000D03*
%TD*%
D16*
%TO.C,C409*%
X139687000Y-238887000D03*
X141237000Y-238887000D03*
%TD*%
D13*
%TO.C,D257*%
X133655000Y-85635000D03*
X135255000Y-85635000D03*
X136855000Y-85635000D03*
X136855000Y-80735000D03*
X135255000Y-80735000D03*
X133655000Y-80735000D03*
%TD*%
D12*
%TO.C,C455*%
X290843000Y-103646000D03*
X289293000Y-103646000D03*
%TD*%
D11*
%TO.C,U459*%
X190038500Y-76901000D03*
X190038500Y-78801000D03*
D10*
X188038500Y-77851000D03*
%TD*%
%TO.C,U464*%
X320882500Y-78801000D03*
X320882500Y-76901000D03*
D11*
X322882500Y-77851000D03*
%TD*%
D15*
%TO.C,R414*%
X265811000Y-237173000D03*
X265811000Y-238823000D03*
%TD*%
D20*
%TO.C,JP201*%
X106553000Y-184949000D03*
D21*
X106553000Y-186399000D03*
%TD*%
D14*
%TO.C,R417*%
X138073580Y-212083000D03*
X138073580Y-210433000D03*
%TD*%
D13*
%TO.C,D258*%
X160325000Y-85635000D03*
X161925000Y-85635000D03*
X163525000Y-85635000D03*
X163525000Y-80735000D03*
X161925000Y-80735000D03*
X160325000Y-80735000D03*
%TD*%
D10*
%TO.C,U424*%
X320882500Y-212278000D03*
X320882500Y-210378000D03*
D11*
X322882500Y-211328000D03*
%TD*%
D16*
%TO.C,C458*%
X166357000Y-78740000D03*
X167907000Y-78740000D03*
%TD*%
D10*
%TO.C,U445*%
X240999500Y-131887000D03*
X240999500Y-129987000D03*
D11*
X242999500Y-130937000D03*
%TD*%
D13*
%TO.C,D239*%
X293675000Y-165405000D03*
X295275000Y-165405000D03*
X296875000Y-165405000D03*
X296875000Y-160505000D03*
X295275000Y-160505000D03*
X293675000Y-160505000D03*
%TD*%
%TO.C,D263*%
X293675000Y-85649000D03*
X295275000Y-85649000D03*
X296875000Y-85649000D03*
X296875000Y-80749000D03*
X295275000Y-80749000D03*
X293675000Y-80749000D03*
%TD*%
D22*
%TO.C,R303*%
X221679000Y-99060000D03*
X223329000Y-99060000D03*
%TD*%
D14*
%TO.C,R451*%
X191770000Y-105346000D03*
X191770000Y-103696000D03*
%TD*%
D11*
%TO.C,U420*%
X216327500Y-210378000D03*
X216327500Y-212278000D03*
D10*
X214327500Y-211328000D03*
%TD*%
D13*
%TO.C,D231*%
X293675000Y-192329000D03*
X295275000Y-192329000D03*
X296875000Y-192329000D03*
X296875000Y-187429000D03*
X295275000Y-187429000D03*
X293675000Y-187429000D03*
%TD*%
%TO.C,D224*%
X320345000Y-219112000D03*
X321945000Y-219112000D03*
X323545000Y-219112000D03*
X323545000Y-214212000D03*
X321945000Y-214212000D03*
X320345000Y-214212000D03*
%TD*%
D11*
%TO.C,U410*%
X162987500Y-237048000D03*
X162987500Y-238948000D03*
D10*
X160987500Y-237998000D03*
%TD*%
D15*
%TO.C,R439*%
X292481000Y-156796000D03*
X292481000Y-158446000D03*
%TD*%
D10*
%TO.C,U440*%
X320882500Y-158557000D03*
X320882500Y-156657000D03*
D11*
X322882500Y-157607000D03*
%TD*%
D14*
%TO.C,R436*%
X218059000Y-158432000D03*
X218059000Y-156782000D03*
%TD*%
D16*
%TO.C,C460*%
X219697000Y-78740000D03*
X221247000Y-78740000D03*
%TD*%
D11*
%TO.C,U452*%
X216327500Y-103571000D03*
X216327500Y-105471000D03*
D10*
X214327500Y-104521000D03*
%TD*%
D11*
%TO.C,U401*%
X136254500Y-263692600D03*
X136254500Y-265592600D03*
D10*
X134254500Y-264642600D03*
%TD*%
D16*
%TO.C,C401*%
X139497000Y-265912600D03*
X141047000Y-265912600D03*
%TD*%
D13*
%TO.C,D259*%
X187376000Y-85635000D03*
X188976000Y-85635000D03*
X190576000Y-85635000D03*
X190576000Y-80735000D03*
X188976000Y-80735000D03*
X187376000Y-80735000D03*
%TD*%
D10*
%TO.C,U408*%
X320882500Y-265618000D03*
X320882500Y-263718000D03*
D11*
X322882500Y-264668000D03*
%TD*%
D16*
%TO.C,C404*%
X219316000Y-265938000D03*
X220866000Y-265938000D03*
%TD*%
D10*
%TO.C,U429*%
X240999500Y-185481000D03*
X240999500Y-183581000D03*
D11*
X242999500Y-184531000D03*
%TD*%
D12*
%TO.C,C437*%
X237630000Y-156845000D03*
X236080000Y-156845000D03*
%TD*%
D15*
%TO.C,R438*%
X265811000Y-156782000D03*
X265811000Y-158432000D03*
%TD*%
D13*
%TO.C,D213*%
X240335000Y-245782000D03*
X241935000Y-245782000D03*
X243535000Y-245782000D03*
X243535000Y-240882000D03*
X241935000Y-240882000D03*
X240335000Y-240882000D03*
%TD*%
D14*
%TO.C,R457*%
X138176000Y-78676000D03*
X138176000Y-77026000D03*
%TD*%
%TO.C,R401*%
X137986000Y-265467600D03*
X137986000Y-263817600D03*
%TD*%
D13*
%TO.C,D210*%
X160325000Y-245782000D03*
X161925000Y-245782000D03*
X163525000Y-245782000D03*
X163525000Y-240882000D03*
X161925000Y-240882000D03*
X160325000Y-240882000D03*
%TD*%
D14*
%TO.C,R427*%
X191389000Y-185229000D03*
X191389000Y-183579000D03*
%TD*%
D11*
%TO.C,U411*%
X189530500Y-237048000D03*
X189530500Y-238948000D03*
D10*
X187530500Y-237998000D03*
%TD*%
D13*
%TO.C,D261*%
X240589000Y-85635000D03*
X242189000Y-85635000D03*
X243789000Y-85635000D03*
X243789000Y-80735000D03*
X242189000Y-80735000D03*
X240589000Y-80735000D03*
%TD*%
D10*
%TO.C,U453*%
X241126500Y-105471000D03*
X241126500Y-103571000D03*
D11*
X243126500Y-104521000D03*
%TD*%
D14*
%TO.C,R434*%
X164719000Y-158432000D03*
X164719000Y-156782000D03*
%TD*%
D15*
%TO.C,R453*%
X239395000Y-103696000D03*
X239395000Y-105346000D03*
%TD*%
D12*
%TO.C,C422*%
X264173000Y-210566000D03*
X262623000Y-210566000D03*
%TD*%
D13*
%TO.C,D206*%
X267005000Y-272452000D03*
X268605000Y-272452000D03*
X270205000Y-272452000D03*
X270205000Y-267552000D03*
X268605000Y-267552000D03*
X267005000Y-267552000D03*
%TD*%
D23*
%TO.C,U302*%
X225025000Y-206062500D03*
X225675000Y-206062500D03*
X226325000Y-206062500D03*
X226975000Y-206062500D03*
X227625000Y-206062500D03*
X228275000Y-206062500D03*
X228925000Y-206062500D03*
X229575000Y-206062500D03*
X230225000Y-206062500D03*
X230875000Y-206062500D03*
X231525000Y-206062500D03*
X232175000Y-206062500D03*
X232175000Y-200337500D03*
X231525000Y-200337500D03*
X230875000Y-200337500D03*
X230225000Y-200337500D03*
X229575000Y-200337500D03*
X228925000Y-200337500D03*
X228275000Y-200337500D03*
X227625000Y-200337500D03*
X226975000Y-200337500D03*
X226325000Y-200337500D03*
X225675000Y-200337500D03*
X225025000Y-200337500D03*
%TD*%
D15*
%TO.C,R447*%
X292989000Y-130126000D03*
X292989000Y-131776000D03*
%TD*%
D12*
%TO.C,C405*%
X237503000Y-263906000D03*
X235953000Y-263906000D03*
%TD*%
D13*
%TO.C,D205*%
X240335000Y-272452000D03*
X241935000Y-272452000D03*
X243535000Y-272452000D03*
X243535000Y-267552000D03*
X241935000Y-267552000D03*
X240335000Y-267552000D03*
%TD*%
D16*
%TO.C,C428*%
X219697000Y-185293000D03*
X221247000Y-185293000D03*
%TD*%
D10*
%TO.C,U405*%
X240872500Y-265618000D03*
X240872500Y-263718000D03*
D11*
X242872500Y-264668000D03*
%TD*%
D15*
%TO.C,R416*%
X319151000Y-237173000D03*
X319151000Y-238823000D03*
%TD*%
D14*
%TO.C,R411*%
X191262000Y-238696000D03*
X191262000Y-237046000D03*
%TD*%
D12*
%TO.C,C302*%
X224549000Y-197866000D03*
X222999000Y-197866000D03*
%TD*%
D16*
%TO.C,C451*%
X193408000Y-105410000D03*
X194958000Y-105410000D03*
%TD*%
D13*
%TO.C,D241*%
X133639580Y-138685000D03*
X135239580Y-138685000D03*
X136839580Y-138685000D03*
X136839580Y-133785000D03*
X135239580Y-133785000D03*
X133639580Y-133785000D03*
%TD*%
%TO.C,D234*%
X160325000Y-165391000D03*
X161925000Y-165391000D03*
X163525000Y-165391000D03*
X163525000Y-160491000D03*
X161925000Y-160491000D03*
X160325000Y-160491000D03*
%TD*%
D10*
%TO.C,U431*%
X294212500Y-185495000D03*
X294212500Y-183595000D03*
D11*
X296212500Y-184545000D03*
%TD*%
%TO.C,U419*%
X189530500Y-210378000D03*
X189530500Y-212278000D03*
D10*
X187530500Y-211328000D03*
%TD*%
D11*
%TO.C,U412*%
X216327500Y-237048000D03*
X216327500Y-238948000D03*
D10*
X214327500Y-237998000D03*
%TD*%
D16*
%TO.C,C418*%
X166344000Y-212217000D03*
X167894000Y-212217000D03*
%TD*%
D15*
%TO.C,R455*%
X292481000Y-103710000D03*
X292481000Y-105360000D03*
%TD*%
D13*
%TO.C,D242*%
X160325000Y-138721000D03*
X161925000Y-138721000D03*
X163525000Y-138721000D03*
X163525000Y-133821000D03*
X161925000Y-133821000D03*
X160325000Y-133821000D03*
%TD*%
D11*
%TO.C,U451*%
X190038500Y-103571000D03*
X190038500Y-105471000D03*
D10*
X188038500Y-104521000D03*
%TD*%
D14*
%TO.C,R443*%
X191262000Y-131762000D03*
X191262000Y-130112000D03*
%TD*%
D16*
%TO.C,C433*%
X139701580Y-158490000D03*
X141251580Y-158490000D03*
%TD*%
%TO.C,C412*%
X219697000Y-238633000D03*
X221247000Y-238633000D03*
%TD*%
D12*
%TO.C,C454*%
X264173000Y-103632000D03*
X262623000Y-103632000D03*
%TD*%
D14*
%TO.C,R418*%
X164719000Y-212153000D03*
X164719000Y-210503000D03*
%TD*%
D16*
%TO.C,C443*%
X192900000Y-131699000D03*
X194450000Y-131699000D03*
%TD*%
D15*
%TO.C,R407*%
X292481000Y-263843000D03*
X292481000Y-265493000D03*
%TD*%
%TO.C,R423*%
X292481000Y-210517000D03*
X292481000Y-212167000D03*
%TD*%
D16*
%TO.C,C436*%
X219697000Y-158496000D03*
X221247000Y-158496000D03*
%TD*%
%TO.C,C411*%
X192900000Y-238887000D03*
X194450000Y-238887000D03*
%TD*%
D14*
%TO.C,R449*%
X138049000Y-105346000D03*
X138049000Y-103696000D03*
%TD*%
D15*
%TO.C,R405*%
X239141000Y-263843000D03*
X239141000Y-265493000D03*
%TD*%
D13*
%TO.C,D220*%
X213665000Y-219112000D03*
X215265000Y-219112000D03*
X216865000Y-219112000D03*
X216865000Y-214212000D03*
X215265000Y-214212000D03*
X213665000Y-214212000D03*
%TD*%
D12*
%TO.C,C408*%
X317513000Y-263906000D03*
X315963000Y-263906000D03*
%TD*%
D10*
%TO.C,U421*%
X240999500Y-212278000D03*
X240999500Y-210378000D03*
D11*
X242999500Y-211328000D03*
%TD*%
D10*
%TO.C,U415*%
X294085500Y-238962000D03*
X294085500Y-237062000D03*
D11*
X296085500Y-238012000D03*
%TD*%
D18*
%TO.C,H104*%
X103378000Y-299466000D03*
D17*
X103378000Y-299466000D03*
%TD*%
D12*
%TO.C,C461*%
X237757000Y-76835000D03*
X236207000Y-76835000D03*
%TD*%
D16*
%TO.C,C457*%
X139814000Y-78740000D03*
X141364000Y-78740000D03*
%TD*%
D15*
%TO.C,R408*%
X319151000Y-263843000D03*
X319151000Y-265493000D03*
%TD*%
D14*
%TO.C,R452*%
X218059000Y-105346000D03*
X218059000Y-103696000D03*
%TD*%
D12*
%TO.C,C432*%
X317513000Y-183642000D03*
X315963000Y-183642000D03*
%TD*%
D13*
%TO.C,D252*%
X213665000Y-112305000D03*
X215265000Y-112305000D03*
X216865000Y-112305000D03*
X216865000Y-107405000D03*
X215265000Y-107405000D03*
X213665000Y-107405000D03*
%TD*%
D16*
%TO.C,C450*%
X166357000Y-105410000D03*
X167907000Y-105410000D03*
%TD*%
D11*
%TO.C,U409*%
X136317500Y-237048000D03*
X136317500Y-238948000D03*
D10*
X134317500Y-237998000D03*
%TD*%
%TO.C,U446*%
X267542500Y-131887000D03*
X267542500Y-129987000D03*
D11*
X269542500Y-130937000D03*
%TD*%
D13*
%TO.C,D225*%
X133679580Y-192332000D03*
X135279580Y-192332000D03*
X136879580Y-192332000D03*
X136879580Y-187432000D03*
X135279580Y-187432000D03*
X133679580Y-187432000D03*
%TD*%
D10*
%TO.C,U438*%
X267542500Y-158557000D03*
X267542500Y-156657000D03*
D11*
X269542500Y-157607000D03*
%TD*%
D16*
%TO.C,C426*%
X166357000Y-185293000D03*
X167907000Y-185293000D03*
%TD*%
D11*
%TO.C,U450*%
X162987500Y-103571000D03*
X162987500Y-105471000D03*
D10*
X160987500Y-104521000D03*
%TD*%
D13*
%TO.C,D216*%
X320345000Y-245782000D03*
X321945000Y-245782000D03*
X323545000Y-245782000D03*
X323545000Y-240882000D03*
X321945000Y-240882000D03*
X320345000Y-240882000D03*
%TD*%
%TO.C,D233*%
X133669580Y-165385000D03*
X135269580Y-165385000D03*
X136869580Y-165385000D03*
X136869580Y-160485000D03*
X135269580Y-160485000D03*
X133669580Y-160485000D03*
%TD*%
D10*
%TO.C,U437*%
X240999500Y-158557000D03*
X240999500Y-156657000D03*
D11*
X242999500Y-157607000D03*
%TD*%
D10*
%TO.C,U439*%
X294212500Y-158571000D03*
X294212500Y-156671000D03*
D11*
X296212500Y-157621000D03*
%TD*%
D13*
%TO.C,D247*%
X293675000Y-138735000D03*
X295275000Y-138735000D03*
X296875000Y-138735000D03*
X296875000Y-133835000D03*
X295275000Y-133835000D03*
X293675000Y-133835000D03*
%TD*%
%TO.C,D218*%
X160325000Y-219112000D03*
X161925000Y-219112000D03*
X163525000Y-219112000D03*
X163525000Y-214212000D03*
X161925000Y-214212000D03*
X160325000Y-214212000D03*
%TD*%
%TO.C,D201*%
X133655000Y-272426600D03*
X135255000Y-272426600D03*
X136855000Y-272426600D03*
X136855000Y-267526600D03*
X135255000Y-267526600D03*
X133655000Y-267526600D03*
%TD*%
D16*
%TO.C,C427*%
X193027000Y-185166000D03*
X194577000Y-185166000D03*
%TD*%
%TO.C,C434*%
X166357000Y-158369000D03*
X167907000Y-158369000D03*
%TD*%
D15*
%TO.C,R406*%
X265811000Y-263843000D03*
X265811000Y-265493000D03*
%TD*%
D13*
%TO.C,D228*%
X213665000Y-192315000D03*
X215265000Y-192315000D03*
X216865000Y-192315000D03*
X216865000Y-187415000D03*
X215265000Y-187415000D03*
X213665000Y-187415000D03*
%TD*%
%TO.C,D204*%
X213665000Y-272452000D03*
X215265000Y-272452000D03*
X216865000Y-272452000D03*
X216865000Y-267552000D03*
X215265000Y-267552000D03*
X213665000Y-267552000D03*
%TD*%
D15*
%TO.C,R448*%
X319151000Y-130112000D03*
X319151000Y-131762000D03*
%TD*%
D11*
%TO.C,U458*%
X162987500Y-76901000D03*
X162987500Y-78801000D03*
D10*
X160987500Y-77851000D03*
%TD*%
D11*
%TO.C,U428*%
X216327500Y-183581000D03*
X216327500Y-185481000D03*
D10*
X214327500Y-184531000D03*
%TD*%
D11*
%TO.C,U402*%
X162987500Y-263718000D03*
X162987500Y-265618000D03*
D10*
X160987500Y-264668000D03*
%TD*%
D13*
%TO.C,D260*%
X213665000Y-85635000D03*
X215265000Y-85635000D03*
X216865000Y-85635000D03*
X216865000Y-80735000D03*
X215265000Y-80735000D03*
X213665000Y-80735000D03*
%TD*%
D11*
%TO.C,U418*%
X162987500Y-210378000D03*
X162987500Y-212278000D03*
D10*
X160987500Y-211328000D03*
%TD*%
D11*
%TO.C,U425*%
X136317500Y-183598000D03*
X136317500Y-185498000D03*
D10*
X134317500Y-184548000D03*
%TD*%
D22*
%TO.C,R301*%
X225362000Y-192786000D03*
X227012000Y-192786000D03*
%TD*%
D14*
%TO.C,R433*%
X138063580Y-158426000D03*
X138063580Y-156776000D03*
%TD*%
D12*
%TO.C,C407*%
X290843000Y-263906000D03*
X289293000Y-263906000D03*
%TD*%
D14*
%TO.C,R412*%
X218059000Y-238696000D03*
X218059000Y-237046000D03*
%TD*%
D10*
%TO.C,U447*%
X294720500Y-131901000D03*
X294720500Y-130001000D03*
D11*
X296720500Y-130951000D03*
%TD*%
D14*
%TO.C,R420*%
X218059000Y-212153000D03*
X218059000Y-210503000D03*
%TD*%
D15*
%TO.C,R431*%
X292481000Y-183720000D03*
X292481000Y-185370000D03*
%TD*%
%TO.C,R462*%
X265811000Y-77026000D03*
X265811000Y-78676000D03*
%TD*%
D14*
%TO.C,R460*%
X218059000Y-78676000D03*
X218059000Y-77026000D03*
%TD*%
D10*
%TO.C,U454*%
X267542500Y-105471000D03*
X267542500Y-103571000D03*
D11*
X269542500Y-104521000D03*
%TD*%
D12*
%TO.C,C462*%
X264173000Y-76835000D03*
X262623000Y-76835000D03*
%TD*%
D16*
%TO.C,C449*%
X139687000Y-105410000D03*
X141237000Y-105410000D03*
%TD*%
D13*
%TO.C,D212*%
X213665000Y-245782000D03*
X215265000Y-245782000D03*
X216865000Y-245782000D03*
X216865000Y-240882000D03*
X215265000Y-240882000D03*
X213665000Y-240882000D03*
%TD*%
D15*
%TO.C,R432*%
X319151000Y-183706000D03*
X319151000Y-185356000D03*
%TD*%
%TO.C,R421*%
X239268000Y-210503000D03*
X239268000Y-212153000D03*
%TD*%
D23*
%TO.C,U304*%
X225025000Y-99382500D03*
X225675000Y-99382500D03*
X226325000Y-99382500D03*
X226975000Y-99382500D03*
X227625000Y-99382500D03*
X228275000Y-99382500D03*
X228925000Y-99382500D03*
X229575000Y-99382500D03*
X230225000Y-99382500D03*
X230875000Y-99382500D03*
X231525000Y-99382500D03*
X232175000Y-99382500D03*
X232175000Y-93657500D03*
X231525000Y-93657500D03*
X230875000Y-93657500D03*
X230225000Y-93657500D03*
X229575000Y-93657500D03*
X228925000Y-93657500D03*
X228275000Y-93657500D03*
X227625000Y-93657500D03*
X226975000Y-93657500D03*
X226325000Y-93657500D03*
X225675000Y-93657500D03*
X225025000Y-93657500D03*
%TD*%
D10*
%TO.C,U423*%
X294212500Y-212292000D03*
X294212500Y-210392000D03*
D11*
X296212500Y-211342000D03*
%TD*%
D14*
%TO.C,R404*%
X217805000Y-265493000D03*
X217805000Y-263843000D03*
%TD*%
D15*
%TO.C,R464*%
X319151000Y-77026000D03*
X319151000Y-78676000D03*
%TD*%
D11*
%TO.C,U433*%
X136332080Y-156651000D03*
X136332080Y-158551000D03*
D10*
X134332080Y-157601000D03*
%TD*%
D15*
%TO.C,R445*%
X239268000Y-130112000D03*
X239268000Y-131762000D03*
%TD*%
D12*
%TO.C,C301*%
X224295000Y-250952000D03*
X222745000Y-250952000D03*
%TD*%
D13*
%TO.C,D222*%
X267005000Y-219112000D03*
X268605000Y-219112000D03*
X270205000Y-219112000D03*
X270205000Y-214212000D03*
X268605000Y-214212000D03*
X267005000Y-214212000D03*
%TD*%
D10*
%TO.C,U414*%
X267542500Y-238948000D03*
X267542500Y-237048000D03*
D11*
X269542500Y-237998000D03*
%TD*%
D13*
%TO.C,D214*%
X267005000Y-245782000D03*
X268605000Y-245782000D03*
X270205000Y-245782000D03*
X270205000Y-240882000D03*
X268605000Y-240882000D03*
X267005000Y-240882000D03*
%TD*%
D10*
%TO.C,U461*%
X241126500Y-78801000D03*
X241126500Y-76901000D03*
D11*
X243126500Y-77851000D03*
%TD*%
D12*
%TO.C,C304*%
X223406000Y-93472000D03*
X221856000Y-93472000D03*
%TD*%
%TO.C,C423*%
X290843000Y-210580000D03*
X289293000Y-210580000D03*
%TD*%
D10*
%TO.C,U455*%
X294212500Y-105485000D03*
X294212500Y-103585000D03*
D11*
X296212500Y-104535000D03*
%TD*%
D13*
%TO.C,D217*%
X133679580Y-219042000D03*
X135279580Y-219042000D03*
X136879580Y-219042000D03*
X136879580Y-214142000D03*
X135279580Y-214142000D03*
X133679580Y-214142000D03*
%TD*%
D12*
%TO.C,C456*%
X317132000Y-103632000D03*
X315582000Y-103632000D03*
%TD*%
D11*
%TO.C,U404*%
X216073500Y-263718000D03*
X216073500Y-265618000D03*
D10*
X214073500Y-264668000D03*
%TD*%
D15*
%TO.C,R440*%
X319151000Y-156782000D03*
X319151000Y-158432000D03*
%TD*%
D17*
%TO.C,H101*%
X347218000Y-56134000D03*
D18*
X347218000Y-56134000D03*
%TD*%
D16*
%TO.C,C420*%
X219697000Y-212217000D03*
X221247000Y-212217000D03*
%TD*%
D13*
%TO.C,D264*%
X320345000Y-85635000D03*
X321945000Y-85635000D03*
X323545000Y-85635000D03*
X323545000Y-80735000D03*
X321945000Y-80735000D03*
X320345000Y-80735000D03*
%TD*%
D16*
%TO.C,C403*%
X192900000Y-265938000D03*
X194450000Y-265938000D03*
%TD*%
D10*
%TO.C,U413*%
X240872500Y-238948000D03*
X240872500Y-237048000D03*
D11*
X242872500Y-237998000D03*
%TD*%
D16*
%TO.C,C459*%
X193408000Y-78740000D03*
X194958000Y-78740000D03*
%TD*%
D12*
%TO.C,C448*%
X317513000Y-130302000D03*
X315963000Y-130302000D03*
%TD*%
D16*
%TO.C,C425*%
X139687000Y-185293000D03*
X141237000Y-185293000D03*
%TD*%
D15*
%TO.C,R456*%
X318770000Y-103696000D03*
X318770000Y-105346000D03*
%TD*%
D10*
%TO.C,U416*%
X320882500Y-238948000D03*
X320882500Y-237048000D03*
D11*
X322882500Y-237998000D03*
%TD*%
D13*
%TO.C,D232*%
X320345000Y-192315000D03*
X321945000Y-192315000D03*
X323545000Y-192315000D03*
X323545000Y-187415000D03*
X321945000Y-187415000D03*
X320345000Y-187415000D03*
%TD*%
%TO.C,D219*%
X186868000Y-219112000D03*
X188468000Y-219112000D03*
X190068000Y-219112000D03*
X190068000Y-214212000D03*
X188468000Y-214212000D03*
X186868000Y-214212000D03*
%TD*%
D16*
%TO.C,C419*%
X192900000Y-212217000D03*
X194450000Y-212217000D03*
%TD*%
D14*
%TO.C,R409*%
X138049000Y-238823000D03*
X138049000Y-237173000D03*
%TD*%
%TO.C,R425*%
X138049000Y-185373000D03*
X138049000Y-183723000D03*
%TD*%
D11*
%TO.C,U427*%
X189657500Y-183454000D03*
X189657500Y-185354000D03*
D10*
X187657500Y-184404000D03*
%TD*%
D15*
%TO.C,R429*%
X239268000Y-183706000D03*
X239268000Y-185356000D03*
%TD*%
D10*
%TO.C,U422*%
X267542500Y-212278000D03*
X267542500Y-210378000D03*
D11*
X269542500Y-211328000D03*
%TD*%
D13*
%TO.C,D246*%
X267005000Y-138721000D03*
X268605000Y-138721000D03*
X270205000Y-138721000D03*
X270205000Y-133821000D03*
X268605000Y-133821000D03*
X267005000Y-133821000D03*
%TD*%
D12*
%TO.C,C445*%
X237630000Y-130048000D03*
X236080000Y-130048000D03*
%TD*%
D13*
%TO.C,D230*%
X267005000Y-192315000D03*
X268605000Y-192315000D03*
X270205000Y-192315000D03*
X270205000Y-187415000D03*
X268605000Y-187415000D03*
X267005000Y-187415000D03*
%TD*%
D10*
%TO.C,U463*%
X294212500Y-78815000D03*
X294212500Y-76915000D03*
D11*
X296212500Y-77865000D03*
%TD*%
D10*
%TO.C,U430*%
X267542500Y-185481000D03*
X267542500Y-183581000D03*
D11*
X269542500Y-184531000D03*
%TD*%
D13*
%TO.C,D250*%
X160325000Y-112305000D03*
X161925000Y-112305000D03*
X163525000Y-112305000D03*
X163525000Y-107405000D03*
X161925000Y-107405000D03*
X160325000Y-107405000D03*
%TD*%
%TO.C,D248*%
X320345000Y-138721000D03*
X321945000Y-138721000D03*
X323545000Y-138721000D03*
X323545000Y-133821000D03*
X321945000Y-133821000D03*
X320345000Y-133821000D03*
%TD*%
D12*
%TO.C,C431*%
X290843000Y-183656000D03*
X289293000Y-183656000D03*
%TD*%
D11*
%TO.C,U434*%
X162987500Y-156657000D03*
X162987500Y-158557000D03*
D10*
X160987500Y-157607000D03*
%TD*%
D13*
%TO.C,D207*%
X293675000Y-272452000D03*
X295275000Y-272452000D03*
X296875000Y-272452000D03*
X296875000Y-267552000D03*
X295275000Y-267552000D03*
X293675000Y-267552000D03*
%TD*%
D15*
%TO.C,R446*%
X265811000Y-130112000D03*
X265811000Y-131762000D03*
%TD*%
D11*
%TO.C,U443*%
X189530500Y-129987000D03*
X189530500Y-131887000D03*
D10*
X187530500Y-130937000D03*
%TD*%
D13*
%TO.C,D223*%
X293675000Y-219126000D03*
X295275000Y-219126000D03*
X296875000Y-219126000D03*
X296875000Y-214226000D03*
X295275000Y-214226000D03*
X293675000Y-214226000D03*
%TD*%
D12*
%TO.C,C414*%
X264173000Y-237109000D03*
X262623000Y-237109000D03*
%TD*%
%TO.C,C406*%
X264173000Y-263906000D03*
X262623000Y-263906000D03*
%TD*%
%TO.C,C424*%
X317513000Y-210566000D03*
X315963000Y-210566000D03*
%TD*%
D14*
%TO.C,R426*%
X164719000Y-185356000D03*
X164719000Y-183706000D03*
%TD*%
D12*
%TO.C,C447*%
X291351000Y-130316000D03*
X289801000Y-130316000D03*
%TD*%
D11*
%TO.C,U417*%
X136342080Y-210308000D03*
X136342080Y-212208000D03*
D10*
X134342080Y-211258000D03*
%TD*%
D17*
%TO.C,H103*%
X103378000Y-56134000D03*
D18*
X103378000Y-56134000D03*
%TD*%
D12*
%TO.C,C438*%
X264173000Y-156845000D03*
X262623000Y-156845000D03*
%TD*%
%TO.C,C413*%
X237503000Y-237109000D03*
X235953000Y-237109000D03*
%TD*%
D10*
%TO.C,U456*%
X320501500Y-105471000D03*
X320501500Y-103571000D03*
D11*
X322501500Y-104521000D03*
%TD*%
D23*
%TO.C,U301*%
X225025000Y-259402500D03*
X225675000Y-259402500D03*
X226325000Y-259402500D03*
X226975000Y-259402500D03*
X227625000Y-259402500D03*
X228275000Y-259402500D03*
X228925000Y-259402500D03*
X229575000Y-259402500D03*
X230225000Y-259402500D03*
X230875000Y-259402500D03*
X231525000Y-259402500D03*
X232175000Y-259402500D03*
X232175000Y-253677500D03*
X231525000Y-253677500D03*
X230875000Y-253677500D03*
X230225000Y-253677500D03*
X229575000Y-253677500D03*
X228925000Y-253677500D03*
X228275000Y-253677500D03*
X227625000Y-253677500D03*
X226975000Y-253677500D03*
X226325000Y-253677500D03*
X225675000Y-253677500D03*
X225025000Y-253677500D03*
%TD*%
D13*
%TO.C,D254*%
X267005000Y-112305000D03*
X268605000Y-112305000D03*
X270205000Y-112305000D03*
X270205000Y-107405000D03*
X268605000Y-107405000D03*
X267005000Y-107405000D03*
%TD*%
D14*
%TO.C,R442*%
X164719000Y-131762000D03*
X164719000Y-130112000D03*
%TD*%
D16*
%TO.C,C444*%
X219697000Y-131699000D03*
X221247000Y-131699000D03*
%TD*%
D12*
%TO.C,C463*%
X290843000Y-76849000D03*
X289293000Y-76849000D03*
%TD*%
D13*
%TO.C,D221*%
X240462000Y-219112000D03*
X242062000Y-219112000D03*
X243662000Y-219112000D03*
X243662000Y-214212000D03*
X242062000Y-214212000D03*
X240462000Y-214212000D03*
%TD*%
D12*
%TO.C,C464*%
X317513000Y-76835000D03*
X315963000Y-76835000D03*
%TD*%
D14*
%TO.C,R435*%
X191262000Y-158432000D03*
X191262000Y-156782000D03*
%TD*%
D22*
%TO.C,R302*%
X221806000Y-152908000D03*
X223456000Y-152908000D03*
%TD*%
D10*
%TO.C,U406*%
X267542500Y-265618000D03*
X267542500Y-263718000D03*
D11*
X269542500Y-264668000D03*
%TD*%
D24*
%TO.C,J101*%
X101749000Y-171030000D03*
X101749000Y-172030000D03*
X101749000Y-173030000D03*
X101749000Y-174030000D03*
X101749000Y-175030000D03*
X101749000Y-176030000D03*
X101749000Y-177030000D03*
X101749000Y-178030000D03*
X101749000Y-179030000D03*
X101749000Y-180030000D03*
X101749000Y-181030000D03*
X101749000Y-182030000D03*
D25*
X98949000Y-185020000D03*
X98949000Y-168040000D03*
%TD*%
D11*
%TO.C,U426*%
X162987500Y-183581000D03*
X162987500Y-185481000D03*
D10*
X160987500Y-184531000D03*
%TD*%
D13*
%TO.C,D262*%
X267005000Y-85635000D03*
X268605000Y-85635000D03*
X270205000Y-85635000D03*
X270205000Y-80735000D03*
X268605000Y-80735000D03*
X267005000Y-80735000D03*
%TD*%
D14*
%TO.C,R403*%
X191389000Y-265493000D03*
X191389000Y-263843000D03*
%TD*%
D23*
%TO.C,U303*%
X225025000Y-152722500D03*
X225675000Y-152722500D03*
X226325000Y-152722500D03*
X226975000Y-152722500D03*
X227625000Y-152722500D03*
X228275000Y-152722500D03*
X228925000Y-152722500D03*
X229575000Y-152722500D03*
X230225000Y-152722500D03*
X230875000Y-152722500D03*
X231525000Y-152722500D03*
X232175000Y-152722500D03*
X232175000Y-146997500D03*
X231525000Y-146997500D03*
X230875000Y-146997500D03*
X230225000Y-146997500D03*
X229575000Y-146997500D03*
X228925000Y-146997500D03*
X228275000Y-146997500D03*
X227625000Y-146997500D03*
X226975000Y-146997500D03*
X226325000Y-146997500D03*
X225675000Y-146997500D03*
X225025000Y-146997500D03*
%TD*%
D13*
%TO.C,D244*%
X213665000Y-138721000D03*
X215265000Y-138721000D03*
X216865000Y-138721000D03*
X216865000Y-133821000D03*
X215265000Y-133821000D03*
X213665000Y-133821000D03*
%TD*%
D16*
%TO.C,C435*%
X192900000Y-158369000D03*
X194450000Y-158369000D03*
%TD*%
D13*
%TO.C,D215*%
X293548000Y-245796000D03*
X295148000Y-245796000D03*
X296748000Y-245796000D03*
X296748000Y-240896000D03*
X295148000Y-240896000D03*
X293548000Y-240896000D03*
%TD*%
%TO.C,D255*%
X293675000Y-112319000D03*
X295275000Y-112319000D03*
X296875000Y-112319000D03*
X296875000Y-107419000D03*
X295275000Y-107419000D03*
X293675000Y-107419000D03*
%TD*%
%TO.C,D203*%
X186995000Y-272452000D03*
X188595000Y-272452000D03*
X190195000Y-272452000D03*
X190195000Y-267552000D03*
X188595000Y-267552000D03*
X186995000Y-267552000D03*
%TD*%
%TO.C,D229*%
X240462000Y-192315000D03*
X242062000Y-192315000D03*
X243662000Y-192315000D03*
X243662000Y-187415000D03*
X242062000Y-187415000D03*
X240462000Y-187415000D03*
%TD*%
D22*
%TO.C,R304*%
X225235000Y-88900000D03*
X226885000Y-88900000D03*
%TD*%
D12*
%TO.C,C430*%
X264173000Y-183642000D03*
X262623000Y-183642000D03*
%TD*%
D10*
%TO.C,U462*%
X267542500Y-78801000D03*
X267542500Y-76901000D03*
D11*
X269542500Y-77851000D03*
%TD*%
D15*
%TO.C,R430*%
X265811000Y-183706000D03*
X265811000Y-185356000D03*
%TD*%
D12*
%TO.C,C303*%
X223533000Y-144653000D03*
X221983000Y-144653000D03*
%TD*%
D10*
%TO.C,U448*%
X320882500Y-131887000D03*
X320882500Y-129987000D03*
D11*
X322882500Y-130937000D03*
%TD*%
D15*
%TO.C,R413*%
X239141000Y-237173000D03*
X239141000Y-238823000D03*
%TD*%
%TO.C,R415*%
X292354000Y-237187000D03*
X292354000Y-238837000D03*
%TD*%
D11*
%TO.C,U435*%
X189530500Y-156657000D03*
X189530500Y-158557000D03*
D10*
X187530500Y-157607000D03*
%TD*%
D16*
%TO.C,C452*%
X219697000Y-105410000D03*
X221247000Y-105410000D03*
%TD*%
D10*
%TO.C,U407*%
X294212500Y-265618000D03*
X294212500Y-263718000D03*
D11*
X296212500Y-264668000D03*
%TD*%
D13*
%TO.C,D251*%
X187376000Y-112305000D03*
X188976000Y-112305000D03*
X190576000Y-112305000D03*
X190576000Y-107405000D03*
X188976000Y-107405000D03*
X187376000Y-107405000D03*
%TD*%
%TO.C,D227*%
X186868000Y-192315000D03*
X188468000Y-192315000D03*
X190068000Y-192315000D03*
X190068000Y-187415000D03*
X188468000Y-187415000D03*
X186868000Y-187415000D03*
%TD*%
%TO.C,D211*%
X186868000Y-245782000D03*
X188468000Y-245782000D03*
X190068000Y-245782000D03*
X190068000Y-240882000D03*
X188468000Y-240882000D03*
X186868000Y-240882000D03*
%TD*%
%TO.C,D240*%
X320345000Y-165391000D03*
X321945000Y-165391000D03*
X323545000Y-165391000D03*
X323545000Y-160491000D03*
X321945000Y-160491000D03*
X320345000Y-160491000D03*
%TD*%
%TO.C,D256*%
X320345000Y-112305000D03*
X321945000Y-112305000D03*
X323545000Y-112305000D03*
X323545000Y-107405000D03*
X321945000Y-107405000D03*
X320345000Y-107405000D03*
%TD*%
D15*
%TO.C,R463*%
X292481000Y-77040000D03*
X292481000Y-78690000D03*
%TD*%
D11*
%TO.C,U403*%
X189657500Y-263718000D03*
X189657500Y-265618000D03*
D10*
X187657500Y-264668000D03*
%TD*%
D13*
%TO.C,D253*%
X240589000Y-112305000D03*
X242189000Y-112305000D03*
X243789000Y-112305000D03*
X243789000Y-107405000D03*
X242189000Y-107405000D03*
X240589000Y-107405000D03*
%TD*%
D11*
%TO.C,U444*%
X216327500Y-129987000D03*
X216327500Y-131887000D03*
D10*
X214327500Y-130937000D03*
%TD*%
D12*
%TO.C,C429*%
X237630000Y-183642000D03*
X236080000Y-183642000D03*
%TD*%
D14*
%TO.C,R402*%
X164668200Y-265493000D03*
X164668200Y-263843000D03*
%TD*%
D11*
%TO.C,U449*%
X136317500Y-103571000D03*
X136317500Y-105471000D03*
D10*
X134317500Y-104521000D03*
%TD*%
D14*
%TO.C,R450*%
X164719000Y-105346000D03*
X164719000Y-103696000D03*
%TD*%
D16*
%TO.C,C410*%
X166357000Y-238887000D03*
X167907000Y-238887000D03*
%TD*%
D13*
%TO.C,D236*%
X213665000Y-165391000D03*
X215265000Y-165391000D03*
X216865000Y-165391000D03*
X216865000Y-160491000D03*
X215265000Y-160491000D03*
X213665000Y-160491000D03*
%TD*%
D11*
%TO.C,U436*%
X216327500Y-156657000D03*
X216327500Y-158557000D03*
D10*
X214327500Y-157607000D03*
%TD*%
D14*
%TO.C,R419*%
X191262000Y-212153000D03*
X191262000Y-210503000D03*
%TD*%
D16*
%TO.C,C417*%
X139711580Y-212147000D03*
X141261580Y-212147000D03*
%TD*%
D13*
%TO.C,D243*%
X186868000Y-138721000D03*
X188468000Y-138721000D03*
X190068000Y-138721000D03*
X190068000Y-133821000D03*
X188468000Y-133821000D03*
X186868000Y-133821000D03*
%TD*%
%TO.C,D249*%
X133655000Y-112305000D03*
X135255000Y-112305000D03*
X136855000Y-112305000D03*
X136855000Y-107405000D03*
X135255000Y-107405000D03*
X133655000Y-107405000D03*
%TD*%
D12*
%TO.C,C421*%
X237630000Y-210566000D03*
X236080000Y-210566000D03*
%TD*%
D13*
%TO.C,D235*%
X186868000Y-165391000D03*
X188468000Y-165391000D03*
X190068000Y-165391000D03*
X190068000Y-160491000D03*
X188468000Y-160491000D03*
X186868000Y-160491000D03*
%TD*%
D16*
%TO.C,C441*%
X139671580Y-131663000D03*
X141221580Y-131663000D03*
%TD*%
D15*
%TO.C,R454*%
X265811000Y-103696000D03*
X265811000Y-105346000D03*
%TD*%
D14*
%TO.C,R459*%
X191770000Y-78676000D03*
X191770000Y-77026000D03*
%TD*%
D12*
%TO.C,C415*%
X290716000Y-237123000D03*
X289166000Y-237123000D03*
%TD*%
D13*
%TO.C,D226*%
X160325000Y-192315000D03*
X161925000Y-192315000D03*
X163525000Y-192315000D03*
X163525000Y-187415000D03*
X161925000Y-187415000D03*
X160325000Y-187415000D03*
%TD*%
D14*
%TO.C,R458*%
X164719000Y-78676000D03*
X164719000Y-77026000D03*
%TD*%
D11*
%TO.C,U457*%
X136444500Y-76901000D03*
X136444500Y-78801000D03*
D10*
X134444500Y-77851000D03*
%TD*%
D16*
%TO.C,C442*%
X166357000Y-131699000D03*
X167907000Y-131699000D03*
%TD*%
D14*
%TO.C,R441*%
X138033580Y-131726000D03*
X138033580Y-130076000D03*
%TD*%
D15*
%TO.C,R461*%
X239395000Y-77026000D03*
X239395000Y-78676000D03*
%TD*%
D11*
%TO.C,U441*%
X136302080Y-129951000D03*
X136302080Y-131851000D03*
D10*
X134302080Y-130901000D03*
%TD*%
D15*
%TO.C,R422*%
X265811000Y-210503000D03*
X265811000Y-212153000D03*
%TD*%
D26*
X98806000Y-178435000D03*
X268430420Y-135531000D03*
X242027420Y-189185000D03*
X196013420Y-238912000D03*
X226822000Y-204470000D03*
X244817420Y-184525000D03*
X196065420Y-265957000D03*
X271350420Y-237871000D03*
X314530420Y-156851000D03*
X295083620Y-82437000D03*
X271330420Y-157631000D03*
X169390420Y-131691000D03*
X188590420Y-269282000D03*
X268580420Y-189205000D03*
X215175220Y-82423000D03*
X196103420Y-185175000D03*
X169500420Y-238902000D03*
X143070420Y-105405000D03*
X161930420Y-189175000D03*
X159040420Y-104515000D03*
X314440420Y-263907000D03*
X142755000Y-131675000D03*
X222885000Y-238633000D03*
X215270420Y-189235000D03*
X161936820Y-82473800D03*
X268600420Y-269232000D03*
X215260420Y-269282000D03*
X321915420Y-242612000D03*
X212440420Y-130951000D03*
X185738420Y-238037000D03*
X244817420Y-157621000D03*
X242017420Y-162311000D03*
X242057420Y-135531000D03*
X244680420Y-264682000D03*
X161860420Y-109125000D03*
X212500420Y-184525000D03*
X242097420Y-109095000D03*
X142785000Y-158515000D03*
X321940420Y-162281000D03*
X187463820Y-76377800D03*
X134747000Y-189357000D03*
X324610420Y-130971000D03*
X132200420Y-104535000D03*
X188433420Y-215932000D03*
X196469000Y-78740000D03*
X260996820Y-76835000D03*
X233426000Y-206121000D03*
X288280420Y-130335000D03*
X222335420Y-265938000D03*
X317130820Y-89179400D03*
X271380420Y-211362000D03*
X295260420Y-109059000D03*
X268580420Y-216082000D03*
X321965420Y-269307000D03*
X161910420Y-215962000D03*
X321910420Y-216022000D03*
X222631000Y-105410000D03*
X268590420Y-162331000D03*
X142670420Y-238902000D03*
X298030420Y-104549000D03*
X105460800Y-173075600D03*
X297815000Y-237998000D03*
X169510420Y-212232000D03*
X159190420Y-238002000D03*
X295280420Y-135545000D03*
X298450000Y-130810000D03*
X215240420Y-215902000D03*
X245121820Y-77901800D03*
X287790420Y-156865000D03*
X215260420Y-242612000D03*
X135255000Y-82550000D03*
X287819220Y-76849000D03*
X212510420Y-237987000D03*
X234696000Y-76835000D03*
X298010420Y-157625000D03*
X215150420Y-109105000D03*
X314140420Y-237237000D03*
X298000420Y-184579000D03*
X188835420Y-82473800D03*
X195933420Y-158371000D03*
X295250420Y-162305000D03*
X132524420Y-184542000D03*
X221400000Y-197925000D03*
X314500420Y-183645000D03*
X234442000Y-237109000D03*
X261060420Y-156851000D03*
X215260420Y-162251000D03*
X261040420Y-103645000D03*
X185673420Y-157601000D03*
X132535000Y-130925000D03*
X244682420Y-238012000D03*
X314340420Y-210572000D03*
X268566020Y-82423000D03*
X321906020Y-82473800D03*
X135255000Y-135382000D03*
X169395420Y-265932000D03*
X169390420Y-158361000D03*
X142723420Y-185293000D03*
X220599000Y-93472000D03*
X212540420Y-157601000D03*
X212736820Y-76682600D03*
X287770420Y-183649000D03*
X295220420Y-269232000D03*
X188423420Y-162301000D03*
X225933000Y-257683000D03*
X142825000Y-212152000D03*
X215150420Y-135511000D03*
X132525000Y-211262000D03*
X212350420Y-104525000D03*
X298030420Y-211356000D03*
X160412820Y-76225400D03*
X226822000Y-97790000D03*
X188923420Y-109105000D03*
X185713420Y-211342000D03*
X324250420Y-104545000D03*
X244777420Y-130810000D03*
X298080820Y-77915800D03*
X271350420Y-264732000D03*
X159200420Y-184515000D03*
X268470420Y-109045000D03*
X161945420Y-269332000D03*
X161740420Y-242732000D03*
X261100420Y-263932000D03*
X159090420Y-157631000D03*
X287720420Y-263957000D03*
X135200000Y-109250000D03*
X169291000Y-78740000D03*
X185865420Y-264707000D03*
X271370420Y-184515000D03*
X212535420Y-264607000D03*
X135255000Y-162052000D03*
X220726000Y-144653000D03*
X233426000Y-152781000D03*
X188473420Y-135541000D03*
X321920420Y-109045000D03*
X132500420Y-238012000D03*
X314150420Y-103645000D03*
X234537420Y-210632000D03*
X169470420Y-105405000D03*
X222631000Y-158496000D03*
X221234000Y-250952000D03*
X132500420Y-264631600D03*
X234617420Y-156831000D03*
X314438420Y-76835000D03*
X241955420Y-269232000D03*
X297995420Y-264707000D03*
X287680420Y-210606000D03*
X324680420Y-157641000D03*
X287620420Y-237126000D03*
X244827420Y-211342000D03*
X261090420Y-130061000D03*
X223012000Y-131699000D03*
X186083420Y-104525000D03*
X314390420Y-130281000D03*
X222631000Y-185293000D03*
X272122020Y-83337400D03*
X295240420Y-215946000D03*
X234823000Y-103632000D03*
X324680420Y-211332000D03*
X159170420Y-211332000D03*
X188413420Y-189225000D03*
X135128000Y-215900000D03*
X135255000Y-242443000D03*
X212530420Y-211332000D03*
X287760420Y-103669000D03*
X222631000Y-212222000D03*
X241907420Y-242637000D03*
X188463420Y-242712000D03*
X185723420Y-184425000D03*
X142575420Y-265931600D03*
X261060420Y-183635000D03*
X132475000Y-157615000D03*
X321930420Y-135511000D03*
X142875000Y-78740000D03*
X244983000Y-104267000D03*
X324730420Y-184545000D03*
X226949000Y-148463000D03*
X295120420Y-242626000D03*
X271410820Y-77851000D03*
X159060420Y-130931000D03*
X196563420Y-105425000D03*
X159170420Y-264682000D03*
X261070420Y-210562000D03*
X233426000Y-259461000D03*
X261075420Y-237112000D03*
X161760420Y-162211000D03*
X135250420Y-269456600D03*
X241935000Y-82550000D03*
X268575420Y-242687000D03*
X325115420Y-264682000D03*
X226949000Y-255143000D03*
X271360420Y-104545000D03*
X234587420Y-183642000D03*
X161900420Y-135491000D03*
X271390420Y-130810000D03*
X169164000Y-185293000D03*
X222758000Y-78740000D03*
X185593420Y-130921000D03*
X321940420Y-189095000D03*
X324715420Y-237987000D03*
X196053420Y-131701000D03*
X233553000Y-99441000D03*
X98806000Y-175133000D03*
X295260420Y-189209000D03*
X234405420Y-263907000D03*
X234567420Y-130611000D03*
X226949000Y-151257000D03*
X241987420Y-215952000D03*
X166370000Y-186436000D03*
X317115420Y-265482000D03*
X263906000Y-104902000D03*
X317119000Y-238506000D03*
X316992000Y-211963000D03*
X166243000Y-264541000D03*
X263652000Y-185039000D03*
X166370000Y-240284000D03*
X139714580Y-159760000D03*
X193421000Y-106680000D03*
X192913000Y-240284000D03*
X263779000Y-158242000D03*
X166370000Y-159766000D03*
X219710000Y-133096000D03*
X166497000Y-80010000D03*
X219710000Y-159766000D03*
X263779000Y-238506000D03*
X139827000Y-240284000D03*
X263779000Y-131318000D03*
X263875420Y-265332000D03*
X317119000Y-131572000D03*
X290570420Y-265432000D03*
X224155000Y-192278000D03*
X290395420Y-238506000D03*
X237109000Y-185039000D03*
X193421000Y-80010000D03*
X106095800Y-170484800D03*
X290322000Y-185039000D03*
X236855000Y-105156000D03*
X223520000Y-143383000D03*
X192913000Y-213487000D03*
X139684580Y-133060000D03*
X139510000Y-264515600D03*
X223901000Y-88900000D03*
X316992000Y-78232000D03*
X166370000Y-106680000D03*
X317119000Y-158242000D03*
X236982000Y-238506000D03*
X219710000Y-213487000D03*
X139700000Y-106680000D03*
X219710000Y-186436000D03*
X237109000Y-78232000D03*
X193040000Y-133096000D03*
X139675420Y-186436000D03*
X290576000Y-104916000D03*
X166243000Y-133096000D03*
X316865000Y-104902000D03*
X166370000Y-213487000D03*
X237055420Y-265457000D03*
X220472000Y-99060000D03*
X263652000Y-78232000D03*
X237236000Y-158242000D03*
X192913000Y-264541000D03*
X237236000Y-131318000D03*
X139724580Y-213417000D03*
X219710000Y-80010000D03*
X223774000Y-249428000D03*
X263875420Y-212017000D03*
X219710000Y-106680000D03*
X193040000Y-186436000D03*
X237232420Y-211942000D03*
X316992000Y-185039000D03*
X139827000Y-80010500D03*
X220599000Y-152908000D03*
X224536000Y-196342000D03*
X290322000Y-78246000D03*
X219710000Y-240030000D03*
X290449000Y-158256000D03*
X219329000Y-264541000D03*
X290449000Y-211963000D03*
X192913000Y-159766000D03*
X290830000Y-131586000D03*
X223393000Y-92075000D03*
X215175000Y-220975000D03*
X242189000Y-114554000D03*
X268605000Y-247777000D03*
X321945000Y-247777000D03*
X241935000Y-247777000D03*
X215265000Y-87630000D03*
X295275000Y-274447000D03*
X321945000Y-194310000D03*
X295200000Y-167525000D03*
X188595000Y-274447000D03*
X268605000Y-274447000D03*
X188475000Y-221000000D03*
X268605000Y-87630000D03*
X268575000Y-221050000D03*
X161925000Y-247777000D03*
X215225000Y-140825000D03*
X242075000Y-167550000D03*
X215265000Y-114554000D03*
X161925000Y-221000000D03*
X188976000Y-87630000D03*
X321945000Y-87630000D03*
X135225000Y-140775000D03*
X295250000Y-140800000D03*
X295275000Y-194310000D03*
X321925000Y-221050000D03*
X161950000Y-140800000D03*
X321945000Y-274447000D03*
X321950000Y-140825000D03*
X268550000Y-140825000D03*
X242189000Y-87630000D03*
X188468000Y-247777000D03*
X241935000Y-274447000D03*
X215265000Y-274447000D03*
X321975000Y-167525000D03*
X135255000Y-247777000D03*
X109753400Y-170942000D03*
X215265000Y-247777000D03*
X135225000Y-221000000D03*
X295275000Y-87630000D03*
X188450000Y-167475000D03*
X161925000Y-194437000D03*
X135225000Y-114550000D03*
X295148000Y-247777000D03*
X188400000Y-140800000D03*
X242062000Y-194310000D03*
X188976000Y-114554000D03*
X135255000Y-87630000D03*
X242200000Y-140825000D03*
X188468000Y-194437000D03*
X268605000Y-114554000D03*
X295275000Y-114554000D03*
X161900000Y-114550000D03*
X135255000Y-194437000D03*
X135275000Y-167475000D03*
X161798000Y-274447000D03*
X135255000Y-274447000D03*
X295200000Y-221075000D03*
X161875000Y-167475000D03*
X215275000Y-167525000D03*
X242025000Y-220975000D03*
X268600000Y-167600000D03*
X268605000Y-194310000D03*
X161925000Y-87630000D03*
X215265000Y-194437000D03*
X321945000Y-114554000D03*
X233426000Y-240919000D03*
X226822000Y-240919000D03*
X233426000Y-245745000D03*
X226822000Y-245745000D03*
X226782580Y-187579000D03*
X233807000Y-187579000D03*
X233807000Y-190500000D03*
X226782580Y-190627000D03*
X226800000Y-133925000D03*
X233831800Y-133858000D03*
X226822000Y-138811000D03*
X233680000Y-138811000D03*
X226187000Y-80899000D03*
X233553000Y-81026000D03*
X233553000Y-85598000D03*
X226187000Y-85598000D03*
X225933000Y-143129000D03*
X225933000Y-177762500D03*
X225552000Y-90551000D03*
X226399500Y-250698000D03*
X225933000Y-194183000D03*
X224409000Y-178435000D03*
X224663000Y-143256000D03*
X225425000Y-249174000D03*
X225171000Y-195199000D03*
X224663000Y-91186000D03*
M02*
