M48
; DRILL file {KiCad (6.0.8-1)-1} date Wednesday, December 21, 2022 at 09:44:45 PM
; FORMAT={-:-/ absolute / inch / decimal}
; #@! TF.CreationDate,2022-12-21T21:44:45-05:00
; #@! TF.GenerationSoftware,Kicad,Pcbnew,(6.0.8-1)-1
; #@! TF.FileFunction,Plated,1,4,PTH
FMAT,2
INCH
; #@! TA.AperFunction,Plated,PTH,ViaDrill
T1C0.0157
; #@! TA.AperFunction,Plated,PTH,ComponentDrill
T2C0.1260
%
G90
G05
T1
X3.86Y-6.775
X3.86Y-6.85
X3.86Y-6.93
X3.86Y-7.01
X3.86Y-7.09
X3.86Y-7.165
X4.177Y-6.712
X4.23Y-6.81
X4.3575Y-7.0475
X4.45Y-7.34
X5.2047Y-4.1156
X5.2156Y-6.2053
X5.2166Y-9.3706
X5.2166Y-10.4186
X5.2175Y-7.2654
X5.2175Y-8.3174
X5.2179Y-5.1545
X5.305Y-7.455
X5.32Y-8.5
X5.3228Y-4.3012
X5.3238Y-4.5098
X5.3238Y-5.5423
X5.3238Y-8.7008
X5.3248Y-10.6085
X5.325Y-3.25
X5.325Y-3.45
X5.325Y-5.33
X5.325Y-6.38
X5.325Y-7.655
X5.325Y-9.545
X5.325Y-9.755
X5.325Y-10.805
X5.3258Y-6.5935
X5.4925Y-10.414
X5.499Y-7.34
X5.4994Y-5.2386
X5.5Y-4.2
X5.5006Y-6.2898
X5.501Y-8.4022
X5.505Y-3.15
X5.505Y-9.46
X5.6132Y-10.4697
X5.6169Y-9.4056
X5.619Y-7.295
X5.6203Y-5.1841
X5.6215Y-6.2407
X5.623Y-8.3524
X5.625Y-3.1
X5.6327Y-4.1498
X6.2614Y-4.1148
X6.2622Y-5.1548
X6.2634Y-6.2059
X6.2666Y-8.3202
X6.2666Y-10.4206
X6.2673Y-9.3702
X6.2677Y-7.2644
X6.3155Y-3.001
X6.3677Y-9.5564
X6.3685Y-6.3863
X6.37Y-10.805
X6.3725Y-4.2963
X6.373Y-6.5935
X6.374Y-4.5098
X6.374Y-5.3343
X6.3744Y-8.5024
X6.375Y-3.45
X6.375Y-7.655
X6.375Y-8.7008
X6.375Y-9.755
X6.3752Y-7.4478
X6.3755Y-3.247
X6.3758Y-10.6036
X6.376Y-5.5433
X6.545Y-5.24
X6.545Y-10.415
X6.55Y-4.2
X6.55Y-6.29
X6.55Y-7.34
X6.55Y-8.405
X6.55Y-9.46
X6.555Y-3.15
X6.66Y-7.295
X6.665Y-3.1
X6.6689Y-5.1847
X6.6689Y-6.2347
X6.6691Y-10.4698
X6.6721Y-4.1498
X6.6732Y-9.4056
X6.6736Y-8.3556
X7.3068Y-5.1544
X7.31Y-6.2048
X7.3116Y-8.3206
X7.3119Y-7.2608
X7.3125Y-9.3715
X7.3175Y-10.4215
X7.3261Y-4.1152
X7.3805Y-3.007
X7.4173Y-5.5433
X7.4179Y-7.4498
X7.4182Y-6.3898
X7.4186Y-8.5013
X7.4193Y-6.5935
X7.4198Y-9.5556
X7.42Y-7.655
X7.42Y-9.755
X7.4202Y-5.3363
X7.4203Y-8.7008
X7.4248Y-10.6017
X7.425Y-10.805
X7.4345Y-3.247
X7.4379Y-4.2955
X7.44Y-3.45
X7.44Y-4.51
X7.595Y-6.29
X7.595Y-8.405
X7.595Y-9.46
X7.595Y-10.415
X7.6Y-5.24
X7.6Y-7.34
X7.615Y-3.15
X7.615Y-4.2
X7.7139Y-6.2351
X7.7171Y-9.406
X7.7186Y-5.1851
X7.7191Y-10.4707
X7.7206Y-7.2904
X7.735Y-3.1
X7.7387Y-4.1506
X8.3603Y-4.1152
X8.3638Y-5.1556
X8.3662Y-7.2648
X8.3666Y-9.3696
X8.3673Y-8.3202
X8.3675Y-10.4176
X8.3677Y-6.2048
X8.3755Y-3.019
X8.4705Y-4.2955
X8.4705Y-5.3351
X8.4715Y-8.6998
X8.4715Y-3.245
X8.4734Y-5.5443
X8.474Y-8.5001
X8.4748Y-6.3878
X8.4748Y-9.5517
X8.4748Y-10.6017
X8.475Y-3.45
X8.475Y-4.51
X8.475Y-7.655
X8.475Y-9.755
X8.475Y-10.805
X8.4752Y-7.4502
X8.4754Y-6.5955
X8.635Y-10.415
X8.65Y-3.15
X8.65Y-4.2
X8.65Y-5.24
X8.65Y-6.29
X8.65Y-7.34
X8.65Y-8.405
X8.65Y-9.45
X8.665Y-5.965
X8.67Y-3.855
X8.685Y-3.68
X8.69Y-5.695
X8.71Y-9.88
X8.7165Y-7.7923
X8.7534Y-10.47
X8.765Y-4.15
X8.765Y-6.24
X8.765Y-7.295
X8.765Y-8.3552
X8.765Y-9.395
X8.77Y-3.1
X8.78Y-5.185
X8.78Y-10.25
X8.79Y-6.04
X8.795Y-3.625
X8.8Y-3.955
X8.8Y-5.645
X8.805Y-8.1665
X8.815Y-3.5
X8.825Y-7.57
X8.825Y-9.83
X8.835Y-7.025
X8.84Y-7.73
X8.845Y-3.59
X8.845Y-5.64
X8.865Y-7.685
X8.875Y-9.81
X8.88Y-3.565
X8.895Y-5.635
X8.895Y-6.9985
X8.895Y-7.645
X8.895Y-10.145
X8.905Y-3.185
X8.905Y-3.37
X8.9134Y-9.87
X8.9284Y-7.385
X8.9284Y-7.505
X8.9291Y-5.2726
X8.93Y-3.85
X8.93Y-5.465
X8.93Y-8.05
X8.93Y-9.485
X8.93Y-9.675
X8.935Y-5.845
X8.935Y-5.955
X8.935Y-10.045
X9.19Y-6.015
X9.19Y-8.115
X9.19Y-9.485
X9.19Y-9.675
X9.19Y-10.215
X9.195Y-3.19
X9.195Y-3.37
X9.195Y-3.915
X9.2Y-5.465
X9.205Y-7.385
X9.205Y-7.5
X9.206Y-5.27
X9.2286Y-10.39
X9.23Y-9.335
X9.2338Y-8.2926
X9.2349Y-5.1422
X9.2357Y-7.23
X9.2369Y-6.1744
X9.24Y-3.025
X9.245Y-4.08
X9.325Y-4.14
X9.33Y-9.39
X9.3329Y-10.4511
X9.335Y-3.08
X9.335Y-7.285
X9.3399Y-8.3442
X9.34Y-5.17
X9.34Y-6.23
X9.5239Y-9.5526
X9.525Y-3.25
X9.525Y-9.755
X9.525Y-10.805
X9.5258Y-10.5997
X9.5271Y-8.502
X9.5282Y-6.3902
X9.5285Y-8.6998
X9.5286Y-7.4482
X9.5298Y-5.3359
X9.53Y-7.65
X9.5305Y-6.5965
X9.5314Y-4.2951
X9.535Y-3.45
X9.535Y-4.51
X9.5354Y-5.5443
X9.6331Y-10.4206
X9.6332Y-9.3706
X9.6369Y-5.15
X9.6385Y-6.2056
X9.6385Y-7.2648
X9.6389Y-8.3206
X9.645Y-4.105
X9.6505Y-3.067
X10.2755Y-3.025
X10.2772Y-4.0805
X10.278Y-6.1752
X10.278Y-7.2297
X10.2784Y-8.2898
X10.2786Y-9.3351
X10.2792Y-5.1205
X10.2795Y-10.391
X10.38Y-3.08
X10.38Y-7.285
X10.385Y-5.17
X10.385Y-6.23
X10.385Y-9.39
X10.3888Y-8.3471
X10.3888Y-10.4461
X10.39Y-4.13
X10.5681Y-5.3359
X10.5697Y-4.2931
X10.5728Y-5.5443
X10.5735Y-3.245
X10.5738Y-8.7028
X10.5738Y-9.5546
X10.574Y-7.449
X10.574Y-8.5072
X10.5744Y-6.391
X10.5748Y-6.5984
X10.5748Y-10.5997
X10.575Y-3.45
X10.575Y-4.51
X10.575Y-7.65
X10.575Y-9.755
X10.575Y-10.805
X10.6823Y-6.2059
X10.6831Y-9.365
X10.6831Y-10.4225
X10.6835Y-4.1159
X10.6839Y-7.2644
X10.6843Y-8.3213
X10.6847Y-5.15
X10.6855Y-3.065
X10.7135Y-3.281
X11.3236Y-9.3357
X11.326Y-8.2916
X11.3276Y-10.392
X11.3292Y-4.0815
X11.3295Y-7.2303
X11.3303Y-6.1758
X11.3315Y-3.0256
X11.3496Y-5.1313
X11.43Y-3.0806
X11.43Y-7.285
X11.4329Y-9.39
X11.435Y-6.2306
X11.435Y-8.345
X11.4398Y-10.4501
X11.44Y-4.1306
X11.45Y-5.1806
X11.6175Y-3.2456
X11.6189Y-9.5522
X11.62Y-9.755
X11.622Y-6.5955
X11.622Y-8.7037
X11.6229Y-10.5997
X11.6236Y-8.5018
X11.624Y-5.5433
X11.624Y-6.39
X11.6244Y-4.2937
X11.6244Y-7.4492
X11.625Y-3.45
X11.625Y-4.51
X11.625Y-7.65
X11.625Y-10.805
X11.6252Y-5.3364
X11.725Y-9.37
X11.7321Y-10.4215
X11.7323Y-7.2669
X11.7327Y-6.2057
X11.7335Y-4.1161
X11.7335Y-8.3211
X11.7355Y-3.0676
X11.75Y-5.15
X12.3677Y-9.34
X12.3681Y-4.0805
X12.3756Y-8.2902
X12.3776Y-5.1292
X12.3795Y-3.025
X12.3795Y-10.39
X12.3819Y-7.2301
X12.3831Y-6.1752
X12.475Y-4.13
X12.48Y-3.08
X12.48Y-7.285
X12.48Y-8.345
X12.4849Y-10.452
X12.485Y-5.18
X12.485Y-6.23
X12.485Y-9.39
X12.4855Y-3.511
X12.6735Y-3.247
X12.6736Y-8.5048
X12.6738Y-9.5517
X12.674Y-4.2931
X12.6742Y-8.7028
X12.6744Y-5.3351
X12.6748Y-6.389
X12.6748Y-7.4447
X12.675Y-3.45
X12.675Y-4.51
X12.675Y-7.65
X12.675Y-9.755
X12.675Y-10.805
X12.6752Y-5.5443
X12.6758Y-10.6026
X12.6762Y-6.5955
X12.7658Y-4.1159
X12.7799Y-5.1563
X12.7827Y-6.2063
X12.7827Y-8.3202
X12.7841Y-9.3696
X12.7847Y-7.2656
X12.7998Y-10.4206
T2
X4.07Y-2.21
X4.07Y-11.79
X13.67Y-2.21
X13.67Y-11.79
T0
M30
